{
    "asset" : {
        "generator" : "Khronos glTF Blender I/O v3.4.50",
        "version" : "2.0"
    },
    "scene" : 0,
    "scenes" : [
        {
            "name" : "Scene",
            "nodes" : [
                0
            ]
        }
    ],
    "nodes" : [
        {
            "mesh" : 0,
            "name" : "Areas:landuse",
            "rotation" : [
                1,
                0,
                0,
                7.549790126404332e-08
            ],
            "scale" : [
                -0.007731556426733732,
                -0.007731556426733732,
                -0.007731556426733732
            ],
            "translation" : [
                0,
                -0.7519372701644897,
                0
            ]
        }
    ],
    "meshes" : [
        {
            "name" : "Areas:landuse",
            "primitives" : [
                {
                    "attributes" : {
                        "POSITION" : 0,
                        "NORMAL" : 1
                    },
                    "indices" : 2
                }
            ]
        }
    ],
    "accessors" : [
        {
            "bufferView" : 0,
            "componentType" : 5126,
            "count" : 37480,
            "max" : [
                1430.5357666015625,
                235.0650177001953,
                1498.6402587890625
            ],
            "min" : [
                -1421.12451171875,
                77.12701416015625,
                -1708.5455322265625
            ],
            "type" : "VEC3"
        },
        {
            "bufferView" : 1,
            "componentType" : 5126,
            "count" : 37480,
            "type" : "VEC3"
        },
        {
            "bufferView" : 2,
            "componentType" : 5123,
            "count" : 61890,
            "type" : "SCALAR"
        }
    ],
    "bufferViews" : [
        {
            "buffer" : 0,
            "byteLength" : 449760,
            "byteOffset" : 0,
            "target" : 34962
        },
        {
            "buffer" : 0,
            "byteLength" : 449760,
            "byteOffset" : 449760,
            "target" : 34962
        },
        {
            "buffer" : 0,
            "byteLength" : 123780,
            "byteOffset" : 899520,
            "target" : 34963
        }
    ],
    "buffers" : [
        {
            "byteLength" : 1023300,
            "uri" : "data:application/octet-stream;base64,"
        }
    ]
}
